<svg xmlns="http://www.w3.org/2000/svg" viewBox="0 0 64 64" width="64" height="64" style="shape-rendering:crispEdges">
  <!-- Hair -->
  <rect x="20" y="0" width="4" height="4" fill="#4A3728"/>
  <rect x="24" y="0" width="4" height="4" fill="#4A3728"/>
  <rect x="28" y="0" width="4" height="4" fill="#4A3728"/>
  <rect x="32" y="0" width="4" height="4" fill="#4A3728"/>
  <rect x="36" y="0" width="4" height="4" fill="#4A3728"/>
  <rect x="40" y="0" width="4" height="4" fill="#4A3728"/>
  <rect x="16" y="4" width="4" height="4" fill="#4A3728"/>
  <rect x="20" y="4" width="4" height="4" fill="#4A3728"/>
  <rect x="24" y="4" width="4" height="4" fill="#4A3728"/>
  <rect x="28" y="4" width="4" height="4" fill="#4A3728"/>
  <rect x="32" y="4" width="4" height="4" fill="#4A3728"/>
  <rect x="36" y="4" width="4" height="4" fill="#4A3728"/>
  <rect x="40" y="4" width="4" height="4" fill="#4A3728"/>
  <rect x="44" y="4" width="4" height="4" fill="#4A3728"/>
  <!-- Face -->
  <rect x="16" y="8" width="4" height="4" fill="#4A3728"/>
  <rect x="20" y="8" width="4" height="4" fill="#FDBCB4"/>
  <rect x="24" y="8" width="4" height="4" fill="#FDBCB4"/>
  <rect x="28" y="8" width="4" height="4" fill="#FDBCB4"/>
  <rect x="32" y="8" width="4" height="4" fill="#FDBCB4"/>
  <rect x="36" y="8" width="4" height="4" fill="#FDBCB4"/>
  <rect x="40" y="8" width="4" height="4" fill="#FDBCB4"/>
  <rect x="44" y="8" width="4" height="4" fill="#4A3728"/>
  <!-- Eyes row -->
  <rect x="16" y="12" width="4" height="4" fill="#FDBCB4"/>
  <rect x="20" y="12" width="4" height="4" fill="#FDBCB4"/>
  <rect x="24" y="12" width="4" height="4" fill="#2D2D2D"/>
  <rect x="28" y="12" width="4" height="4" fill="#FDBCB4"/>
  <rect x="32" y="12" width="4" height="4" fill="#FDBCB4"/>
  <rect x="36" y="12" width="4" height="4" fill="#2D2D2D"/>
  <rect x="40" y="12" width="4" height="4" fill="#FDBCB4"/>
  <rect x="44" y="12" width="4" height="4" fill="#FDBCB4"/>
  <!-- Cheeks + mouth row -->
  <rect x="16" y="16" width="4" height="4" fill="#FF9999"/>
  <rect x="20" y="16" width="4" height="4" fill="#FDBCB4"/>
  <rect x="24" y="16" width="4" height="4" fill="#FDBCB4"/>
  <rect x="28" y="16" width="4" height="4" fill="#E06070"/>
  <rect x="32" y="16" width="4" height="4" fill="#E06070"/>
  <rect x="36" y="16" width="4" height="4" fill="#FDBCB4"/>
  <rect x="40" y="16" width="4" height="4" fill="#FDBCB4"/>
  <rect x="44" y="16" width="4" height="4" fill="#FF9999"/>
  <!-- Neck -->
  <rect x="28" y="20" width="4" height="4" fill="#FDBCB4"/>
  <rect x="32" y="20" width="4" height="4" fill="#FDBCB4"/>
  <!-- Body -->
  <rect x="12" y="24" width="4" height="4" fill="#FDBCB4"/>
  <rect x="16" y="24" width="4" height="4" fill="#FDBCB4"/>
  <rect x="20" y="24" width="4" height="4" fill="#FDBCB4"/>
  <rect x="24" y="24" width="4" height="4" fill="#FDBCB4"/>
  <rect x="28" y="24" width="4" height="4" fill="#FDBCB4"/>
  <rect x="32" y="24" width="4" height="4" fill="#FDBCB4"/>
  <rect x="36" y="24" width="4" height="4" fill="#FDBCB4"/>
  <rect x="40" y="24" width="4" height="4" fill="#FDBCB4"/>
  <rect x="44" y="24" width="4" height="4" fill="#FDBCB4"/>
  <rect x="48" y="24" width="4" height="4" fill="#FDBCB4"/>
  <!-- Arms -->
  <rect x="8" y="28" width="4" height="4" fill="#FDBCB4"/>
  <rect x="52" y="28" width="4" height="4" fill="#FDBCB4"/>
  <!-- Wide belly row -->
  <rect x="8" y="28" width="4" height="4" fill="#FDBCB4"/>
  <rect x="12" y="28" width="4" height="4" fill="#FDBCB4"/>
  <rect x="16" y="28" width="4" height="4" fill="#FDBCB4"/>
  <rect x="20" y="28" width="4" height="4" fill="#FDBCB4"/>
  <rect x="24" y="28" width="4" height="4" fill="#FDBCB4"/>
  <rect x="28" y="28" width="4" height="4" fill="#F0A8A0"/>
  <rect x="32" y="28" width="4" height="4" fill="#F0A8A0"/>
  <rect x="36" y="28" width="4" height="4" fill="#FDBCB4"/>
  <rect x="40" y="28" width="4" height="4" fill="#FDBCB4"/>
  <rect x="44" y="28" width="4" height="4" fill="#FDBCB4"/>
  <rect x="48" y="28" width="4" height="4" fill="#FDBCB4"/>
  <rect x="52" y="28" width="4" height="4" fill="#FDBCB4"/>
  <!-- Belly row 2 -->
  <rect x="12" y="32" width="4" height="4" fill="#FDBCB4"/>
  <rect x="16" y="32" width="4" height="4" fill="#FDBCB4"/>
  <rect x="20" y="32" width="4" height="4" fill="#FDBCB4"/>
  <rect x="24" y="32" width="4" height="4" fill="#FDBCB4"/>
  <rect x="28" y="32" width="4" height="4" fill="#F0A8A0"/>
  <rect x="32" y="32" width="4" height="4" fill="#F0A8A0"/>
  <rect x="36" y="32" width="4" height="4" fill="#FDBCB4"/>
  <rect x="40" y="32" width="4" height="4" fill="#FDBCB4"/>
  <rect x="44" y="32" width="4" height="4" fill="#FDBCB4"/>
  <rect x="48" y="32" width="4" height="4" fill="#FDBCB4"/>
  <!-- Blue underwear -->
  <rect x="16" y="36" width="4" height="4" fill="#4A90D9"/>
  <rect x="20" y="36" width="4" height="4" fill="#4A90D9"/>
  <rect x="24" y="36" width="4" height="4" fill="#4A90D9"/>
  <rect x="28" y="36" width="4" height="4" fill="#4A90D9"/>
  <rect x="32" y="36" width="4" height="4" fill="#4A90D9"/>
  <rect x="36" y="36" width="4" height="4" fill="#4A90D9"/>
  <rect x="40" y="36" width="4" height="4" fill="#4A90D9"/>
  <rect x="44" y="36" width="4" height="4" fill="#4A90D9"/>
  <!-- Waistband -->
  <rect x="16" y="36" width="4" height="2" fill="#3A78B8"/>
  <rect x="20" y="36" width="4" height="2" fill="#3A78B8"/>
  <rect x="24" y="36" width="4" height="2" fill="#3A78B8"/>
  <rect x="28" y="36" width="4" height="2" fill="#3A78B8"/>
  <rect x="32" y="36" width="4" height="2" fill="#3A78B8"/>
  <rect x="36" y="36" width="4" height="2" fill="#3A78B8"/>
  <rect x="40" y="36" width="4" height="2" fill="#3A78B8"/>
  <rect x="44" y="36" width="4" height="2" fill="#3A78B8"/>
  <!-- Underwear bottom -->
  <rect x="16" y="40" width="4" height="4" fill="#4A90D9"/>
  <rect x="20" y="40" width="4" height="4" fill="#4A90D9"/>
  <rect x="24" y="40" width="4" height="4" fill="#4A90D9"/>
  <rect x="36" y="40" width="4" height="4" fill="#4A90D9"/>
  <rect x="40" y="40" width="4" height="4" fill="#4A90D9"/>
  <rect x="44" y="40" width="4" height="4" fill="#4A90D9"/>
  <!-- Legs -->
  <rect x="16" y="44" width="4" height="4" fill="#FDBCB4"/>
  <rect x="20" y="44" width="4" height="4" fill="#FDBCB4"/>
  <rect x="24" y="44" width="4" height="4" fill="#FDBCB4"/>
  <rect x="36" y="44" width="4" height="4" fill="#FDBCB4"/>
  <rect x="40" y="44" width="4" height="4" fill="#FDBCB4"/>
  <rect x="44" y="44" width="4" height="4" fill="#FDBCB4"/>
  <rect x="16" y="48" width="4" height="4" fill="#FDBCB4"/>
  <rect x="20" y="48" width="4" height="4" fill="#FDBCB4"/>
  <rect x="40" y="48" width="4" height="4" fill="#FDBCB4"/>
  <rect x="44" y="48" width="4" height="4" fill="#FDBCB4"/>
  <!-- Feet -->
  <rect x="12" y="52" width="4" height="4" fill="#FDBCB4"/>
  <rect x="16" y="52" width="4" height="4" fill="#FDBCB4"/>
  <rect x="20" y="52" width="4" height="4" fill="#FDBCB4"/>
  <rect x="24" y="52" width="4" height="4" fill="#FDBCB4"/>
  <rect x="36" y="52" width="4" height="4" fill="#FDBCB4"/>
  <rect x="40" y="52" width="4" height="4" fill="#FDBCB4"/>
  <rect x="44" y="52" width="4" height="4" fill="#FDBCB4"/>
  <rect x="48" y="52" width="4" height="4" fill="#FDBCB4"/>
</svg>
