<svg xmlns="http://www.w3.org/2000/svg" viewBox="0 0 64 64" width="64" height="64">
  <!-- Chubby male character in blue underwear - app icon -->
  <!-- Hair -->
  <ellipse cx="32" cy="12" rx="14" ry="8" fill="#4A2C2A"/>
  <!-- Head -->
  <circle cx="32" cy="18" r="12" fill="#FDBCB4"/>
  <!-- Hair top -->
  <path d="M20 14 Q24 6 32 6 Q40 6 44 14 Q40 10 32 10 Q24 10 20 14Z" fill="#4A2C2A"/>
  <!-- Eyes -->
  <ellipse cx="27" cy="17" rx="2" ry="2.5" fill="#2D2D2D"/>
  <ellipse cx="37" cy="17" rx="2" ry="2.5" fill="#2D2D2D"/>
  <circle cx="28" cy="16" r="0.8" fill="white"/>
  <circle cx="38" cy="16" r="0.8" fill="white"/>
  <!-- Eyebrows -->
  <path d="M24 13.5 Q27 12 30 13" stroke="#4A2C2A" stroke-width="1.2" fill="none" stroke-linecap="round"/>
  <path d="M34 13 Q37 12 40 13.5" stroke="#4A2C2A" stroke-width="1.2" fill="none" stroke-linecap="round"/>
  <!-- Blush -->
  <ellipse cx="23" cy="20" rx="3" ry="1.5" fill="#FFAAAA" opacity="0.5"/>
  <ellipse cx="41" cy="20" rx="3" ry="1.5" fill="#FFAAAA" opacity="0.5"/>
  <!-- Mouth - embarrassed smile -->
  <path d="M28 23 Q32 26 36 23" stroke="#D44" stroke-width="1.5" fill="none" stroke-linecap="round"/>
  <!-- Neck -->
  <rect x="29" y="29" width="6" height="4" rx="1" fill="#FDBCB4"/>
  <!-- Chubby body -->
  <ellipse cx="32" cy="42" rx="18" ry="14" fill="#FDBCB4"/>
  <!-- Belly button -->
  <ellipse cx="32" cy="42" rx="1.5" ry="2" fill="#E8A090"/>
  <!-- Arms -->
  <path d="M14 36 Q10 38 8 44 Q7 47 10 47 Q12 46 14 42" fill="#FDBCB4" stroke="#E8A090" stroke-width="0.5"/>
  <path d="M50 36 Q54 38 56 44 Q57 47 54 47 Q52 46 50 42" fill="#FDBCB4" stroke="#E8A090" stroke-width="0.5"/>
  <!-- Blue underwear -->
  <path d="M18 50 Q20 44 32 44 Q44 44 46 50 L44 58 Q38 56 32 56 Q26 56 20 58 Z" fill="#4A90D9"/>
  <path d="M32 56 L32 44" stroke="#3A78B8" stroke-width="0.8" opacity="0.5"/>
  <!-- Waistband -->
  <path d="M18 50 Q20 47 32 47 Q44 47 46 50" stroke="#3A78B8" stroke-width="1.5" fill="none"/>
  <!-- Legs -->
  <path d="M22 56 L20 62 Q22 64 26 62 L28 56" fill="#FDBCB4"/>
  <path d="M36 56 L34 62 Q38 64 42 62 L44 56" fill="#FDBCB4"/>
</svg>
